# xmcd
#
# Track frame offsets: 
#        150
#        16321
#        31012
#        47504
#        61659
#        75668
#        90191
#        104665
#        121788
#        137792
#
# Disc length: 2035 seconds
#
# Revision: 0
# Processed by: cddbd v1.5.2PL0 Copyright (c) Steve Scherf et al.
# Submitted via: ExactAudioCopy v0.99pb5
#
DISCID=6b07f10a
DTITLE=Jo Hikk - The Game
DYEAR=2010
DGENRE=Country
TTITLE0=Back When You Were Mine
TTITLE1=Not Even A Memory
TTITLE2=With A Smile Like That
TTITLE3=If I Were A Stranger
TTITLE4=I Hear Ya
TTITLE5=The Big Spoon
TTITLE6=Hippie Girl
TTITLE7=Caroline
TTITLE8=The Game
TTITLE9=99 Won't Do
EXTD=
EXTT0=
EXTT1=
EXTT2=
EXTT3=
EXTT4=
EXTT5=
EXTT6=
EXTT7=
EXTT8=
EXTT9=
PLAYORDER=
